%TF.GenerationSoftware,KiCad,Pcbnew,9.0.4*%
%TF.CreationDate,2025-09-17T09:18:14+02:00*%
%TF.ProjectId,vl53l0_breakout,766c3533-6c30-45f6-9272-65616b6f7574,rev?*%
%TF.SameCoordinates,Original*%
%TF.FileFunction,Legend,Top*%
%TF.FilePolarity,Positive*%
%FSLAX46Y46*%
G04 Gerber Fmt 4.6, Leading zero omitted, Abs format (unit mm)*
G04 Created by KiCad (PCBNEW 9.0.4) date 2025-09-17 09:18:14*
%MOMM*%
%LPD*%
G01*
G04 APERTURE LIST*
%ADD10C,0.120000*%
G04 APERTURE END LIST*
D10*
%TO.C,C2*%
X151407836Y-70140000D02*
X151192164Y-70140000D01*
X151407836Y-70860000D02*
X151192164Y-70860000D01*
%TO.C,R5*%
X145594359Y-77438000D02*
X145901641Y-77438000D01*
X145594359Y-78198000D02*
X145901641Y-78198000D01*
%TO.C,J1*%
X141620000Y-66270000D02*
X143000000Y-66270000D01*
X141620000Y-67650000D02*
X141620000Y-66270000D01*
X141620000Y-68920000D02*
X141620000Y-81730000D01*
X141620000Y-68920000D02*
X144380000Y-68920000D01*
X141620000Y-81730000D02*
X144380000Y-81730000D01*
X144380000Y-68920000D02*
X144380000Y-81730000D01*
%TO.C,R3*%
X145594359Y-72358000D02*
X145901641Y-72358000D01*
X145594359Y-73118000D02*
X145901641Y-73118000D01*
%TO.C,R2*%
X146346359Y-66420000D02*
X146653641Y-66420000D01*
X146346359Y-67180000D02*
X146653641Y-67180000D01*
%TO.C,R9*%
X146912000Y-74885835D02*
X146912000Y-74654165D01*
X147632000Y-74885835D02*
X147632000Y-74654165D01*
%TO.C,R4*%
X145594359Y-74898000D02*
X145901641Y-74898000D01*
X145594359Y-75658000D02*
X145901641Y-75658000D01*
%TO.C,C1*%
X149192164Y-70140000D02*
X149407836Y-70140000D01*
X149192164Y-70860000D02*
X149407836Y-70860000D01*
%TO.C,D2*%
X146565000Y-68100000D02*
X146565000Y-70385000D01*
X146565000Y-70385000D02*
X148035000Y-70385000D01*
X148035000Y-70385000D02*
X148035000Y-68100000D01*
%TO.C,R1*%
X147146000Y-78225641D02*
X147146000Y-77918359D01*
X147906000Y-78225641D02*
X147906000Y-77918359D01*
%TO.C,R7*%
X147146000Y-79950359D02*
X147146000Y-80257641D01*
X147906000Y-79950359D02*
X147906000Y-80257641D01*
%TO.C,R8*%
X146912000Y-72368165D02*
X146912000Y-72599835D01*
X147632000Y-72368165D02*
X147632000Y-72599835D01*
%TO.C,R6*%
X145594359Y-79978000D02*
X145901641Y-79978000D01*
X145594359Y-80738000D02*
X145901641Y-80738000D01*
%TO.C,C3*%
X145190000Y-68759420D02*
X145190000Y-69040580D01*
X146210000Y-68759420D02*
X146210000Y-69040580D01*
%TO.C,U1*%
X148650000Y-71450000D02*
X148650000Y-76550000D01*
X148650000Y-76550000D02*
X151350000Y-76550000D01*
X151050000Y-71450000D02*
X148650000Y-71450000D01*
X151350000Y-76550000D02*
X151350000Y-71750000D01*
X151630000Y-71450000D02*
X151350000Y-71450000D01*
X151350000Y-71170000D01*
X151630000Y-71450000D01*
G36*
X151630000Y-71450000D02*
G01*
X151350000Y-71450000D01*
X151350000Y-71170000D01*
X151630000Y-71450000D01*
G37*
%TD*%
M02*
