%TF.GenerationSoftware,KiCad,Pcbnew,9.0.4*%
%TF.CreationDate,2025-09-17T09:18:14+02:00*%
%TF.ProjectId,vl53l0_breakout,766c3533-6c30-45f6-9272-65616b6f7574,rev?*%
%TF.SameCoordinates,Original*%
%TF.FileFunction,Legend,Bot*%
%TF.FilePolarity,Positive*%
%FSLAX46Y46*%
G04 Gerber Fmt 4.6, Leading zero omitted, Abs format (unit mm)*
G04 Created by KiCad (PCBNEW 9.0.4) date 2025-09-17 09:18:14*
%MOMM*%
%LPD*%
G01*
G04 APERTURE LIST*
%ADD10C,0.300000*%
%ADD11C,0.120000*%
G04 APERTURE END LIST*
D10*
X149768796Y-77019757D02*
X149911654Y-76948328D01*
X149911654Y-76948328D02*
X150125939Y-76948328D01*
X150125939Y-76948328D02*
X150340225Y-77019757D01*
X150340225Y-77019757D02*
X150483082Y-77162614D01*
X150483082Y-77162614D02*
X150554511Y-77305471D01*
X150554511Y-77305471D02*
X150625939Y-77591185D01*
X150625939Y-77591185D02*
X150625939Y-77805471D01*
X150625939Y-77805471D02*
X150554511Y-78091185D01*
X150554511Y-78091185D02*
X150483082Y-78234042D01*
X150483082Y-78234042D02*
X150340225Y-78376900D01*
X150340225Y-78376900D02*
X150125939Y-78448328D01*
X150125939Y-78448328D02*
X149983082Y-78448328D01*
X149983082Y-78448328D02*
X149768796Y-78376900D01*
X149768796Y-78376900D02*
X149697368Y-78305471D01*
X149697368Y-78305471D02*
X149697368Y-77805471D01*
X149697368Y-77805471D02*
X149983082Y-77805471D01*
X149054511Y-78448328D02*
X149054511Y-76948328D01*
X149054511Y-76948328D02*
X148483082Y-76948328D01*
X148483082Y-76948328D02*
X148340225Y-77019757D01*
X148340225Y-77019757D02*
X148268796Y-77091185D01*
X148268796Y-77091185D02*
X148197368Y-77234042D01*
X148197368Y-77234042D02*
X148197368Y-77448328D01*
X148197368Y-77448328D02*
X148268796Y-77591185D01*
X148268796Y-77591185D02*
X148340225Y-77662614D01*
X148340225Y-77662614D02*
X148483082Y-77734042D01*
X148483082Y-77734042D02*
X149054511Y-77734042D01*
X147554511Y-78448328D02*
X147554511Y-76948328D01*
X146554510Y-76948328D02*
X146268796Y-76948328D01*
X146268796Y-76948328D02*
X146125939Y-77019757D01*
X146125939Y-77019757D02*
X145983082Y-77162614D01*
X145983082Y-77162614D02*
X145911653Y-77448328D01*
X145911653Y-77448328D02*
X145911653Y-77948328D01*
X145911653Y-77948328D02*
X145983082Y-78234042D01*
X145983082Y-78234042D02*
X146125939Y-78376900D01*
X146125939Y-78376900D02*
X146268796Y-78448328D01*
X146268796Y-78448328D02*
X146554510Y-78448328D01*
X146554510Y-78448328D02*
X146697368Y-78376900D01*
X146697368Y-78376900D02*
X146840225Y-78234042D01*
X146840225Y-78234042D02*
X146911653Y-77948328D01*
X146911653Y-77948328D02*
X146911653Y-77448328D01*
X146911653Y-77448328D02*
X146840225Y-77162614D01*
X146840225Y-77162614D02*
X146697368Y-77019757D01*
X146697368Y-77019757D02*
X146554510Y-76948328D01*
X144483081Y-78448328D02*
X145340224Y-78448328D01*
X144911653Y-78448328D02*
X144911653Y-76948328D01*
X144911653Y-76948328D02*
X145054510Y-77162614D01*
X145054510Y-77162614D02*
X145197367Y-77305471D01*
X145197367Y-77305471D02*
X145340224Y-77376900D01*
X148054510Y-73296900D02*
X147840225Y-73368328D01*
X147840225Y-73368328D02*
X147483082Y-73368328D01*
X147483082Y-73368328D02*
X147340225Y-73296900D01*
X147340225Y-73296900D02*
X147268796Y-73225471D01*
X147268796Y-73225471D02*
X147197367Y-73082614D01*
X147197367Y-73082614D02*
X147197367Y-72939757D01*
X147197367Y-72939757D02*
X147268796Y-72796900D01*
X147268796Y-72796900D02*
X147340225Y-72725471D01*
X147340225Y-72725471D02*
X147483082Y-72654042D01*
X147483082Y-72654042D02*
X147768796Y-72582614D01*
X147768796Y-72582614D02*
X147911653Y-72511185D01*
X147911653Y-72511185D02*
X147983082Y-72439757D01*
X147983082Y-72439757D02*
X148054510Y-72296900D01*
X148054510Y-72296900D02*
X148054510Y-72154042D01*
X148054510Y-72154042D02*
X147983082Y-72011185D01*
X147983082Y-72011185D02*
X147911653Y-71939757D01*
X147911653Y-71939757D02*
X147768796Y-71868328D01*
X147768796Y-71868328D02*
X147411653Y-71868328D01*
X147411653Y-71868328D02*
X147197367Y-71939757D01*
X145697368Y-73225471D02*
X145768796Y-73296900D01*
X145768796Y-73296900D02*
X145983082Y-73368328D01*
X145983082Y-73368328D02*
X146125939Y-73368328D01*
X146125939Y-73368328D02*
X146340225Y-73296900D01*
X146340225Y-73296900D02*
X146483082Y-73154042D01*
X146483082Y-73154042D02*
X146554511Y-73011185D01*
X146554511Y-73011185D02*
X146625939Y-72725471D01*
X146625939Y-72725471D02*
X146625939Y-72511185D01*
X146625939Y-72511185D02*
X146554511Y-72225471D01*
X146554511Y-72225471D02*
X146483082Y-72082614D01*
X146483082Y-72082614D02*
X146340225Y-71939757D01*
X146340225Y-71939757D02*
X146125939Y-71868328D01*
X146125939Y-71868328D02*
X145983082Y-71868328D01*
X145983082Y-71868328D02*
X145768796Y-71939757D01*
X145768796Y-71939757D02*
X145697368Y-72011185D01*
X144340225Y-73368328D02*
X145054511Y-73368328D01*
X145054511Y-73368328D02*
X145054511Y-71868328D01*
X147625939Y-69399757D02*
X147768797Y-69328328D01*
X147768797Y-69328328D02*
X147983082Y-69328328D01*
X147983082Y-69328328D02*
X148197368Y-69399757D01*
X148197368Y-69399757D02*
X148340225Y-69542614D01*
X148340225Y-69542614D02*
X148411654Y-69685471D01*
X148411654Y-69685471D02*
X148483082Y-69971185D01*
X148483082Y-69971185D02*
X148483082Y-70185471D01*
X148483082Y-70185471D02*
X148411654Y-70471185D01*
X148411654Y-70471185D02*
X148340225Y-70614042D01*
X148340225Y-70614042D02*
X148197368Y-70756900D01*
X148197368Y-70756900D02*
X147983082Y-70828328D01*
X147983082Y-70828328D02*
X147840225Y-70828328D01*
X147840225Y-70828328D02*
X147625939Y-70756900D01*
X147625939Y-70756900D02*
X147554511Y-70685471D01*
X147554511Y-70685471D02*
X147554511Y-70185471D01*
X147554511Y-70185471D02*
X147840225Y-70185471D01*
X146911654Y-70828328D02*
X146911654Y-69328328D01*
X146911654Y-69328328D02*
X146054511Y-70828328D01*
X146054511Y-70828328D02*
X146054511Y-69328328D01*
X145340225Y-70828328D02*
X145340225Y-69328328D01*
X145340225Y-69328328D02*
X144983082Y-69328328D01*
X144983082Y-69328328D02*
X144768796Y-69399757D01*
X144768796Y-69399757D02*
X144625939Y-69542614D01*
X144625939Y-69542614D02*
X144554510Y-69685471D01*
X144554510Y-69685471D02*
X144483082Y-69971185D01*
X144483082Y-69971185D02*
X144483082Y-70185471D01*
X144483082Y-70185471D02*
X144554510Y-70471185D01*
X144554510Y-70471185D02*
X144625939Y-70614042D01*
X144625939Y-70614042D02*
X144768796Y-70756900D01*
X144768796Y-70756900D02*
X144983082Y-70828328D01*
X144983082Y-70828328D02*
X145340225Y-70828328D01*
X147983081Y-79488328D02*
X146983081Y-80988328D01*
X146983081Y-79488328D02*
X147983081Y-80988328D01*
X146483081Y-80916900D02*
X146268796Y-80988328D01*
X146268796Y-80988328D02*
X145911653Y-80988328D01*
X145911653Y-80988328D02*
X145768796Y-80916900D01*
X145768796Y-80916900D02*
X145697367Y-80845471D01*
X145697367Y-80845471D02*
X145625938Y-80702614D01*
X145625938Y-80702614D02*
X145625938Y-80559757D01*
X145625938Y-80559757D02*
X145697367Y-80416900D01*
X145697367Y-80416900D02*
X145768796Y-80345471D01*
X145768796Y-80345471D02*
X145911653Y-80274042D01*
X145911653Y-80274042D02*
X146197367Y-80202614D01*
X146197367Y-80202614D02*
X146340224Y-80131185D01*
X146340224Y-80131185D02*
X146411653Y-80059757D01*
X146411653Y-80059757D02*
X146483081Y-79916900D01*
X146483081Y-79916900D02*
X146483081Y-79774042D01*
X146483081Y-79774042D02*
X146411653Y-79631185D01*
X146411653Y-79631185D02*
X146340224Y-79559757D01*
X146340224Y-79559757D02*
X146197367Y-79488328D01*
X146197367Y-79488328D02*
X145840224Y-79488328D01*
X145840224Y-79488328D02*
X145625938Y-79559757D01*
X145197367Y-79488328D02*
X144340225Y-79488328D01*
X144768796Y-80988328D02*
X144768796Y-79488328D01*
X148840224Y-66788328D02*
X147911652Y-66788328D01*
X147911652Y-66788328D02*
X148411652Y-67359757D01*
X148411652Y-67359757D02*
X148197367Y-67359757D01*
X148197367Y-67359757D02*
X148054510Y-67431185D01*
X148054510Y-67431185D02*
X147983081Y-67502614D01*
X147983081Y-67502614D02*
X147911652Y-67645471D01*
X147911652Y-67645471D02*
X147911652Y-68002614D01*
X147911652Y-68002614D02*
X147983081Y-68145471D01*
X147983081Y-68145471D02*
X148054510Y-68216900D01*
X148054510Y-68216900D02*
X148197367Y-68288328D01*
X148197367Y-68288328D02*
X148625938Y-68288328D01*
X148625938Y-68288328D02*
X148768795Y-68216900D01*
X148768795Y-68216900D02*
X148840224Y-68145471D01*
X147268796Y-68145471D02*
X147197367Y-68216900D01*
X147197367Y-68216900D02*
X147268796Y-68288328D01*
X147268796Y-68288328D02*
X147340224Y-68216900D01*
X147340224Y-68216900D02*
X147268796Y-68145471D01*
X147268796Y-68145471D02*
X147268796Y-68288328D01*
X146697367Y-66788328D02*
X145768795Y-66788328D01*
X145768795Y-66788328D02*
X146268795Y-67359757D01*
X146268795Y-67359757D02*
X146054510Y-67359757D01*
X146054510Y-67359757D02*
X145911653Y-67431185D01*
X145911653Y-67431185D02*
X145840224Y-67502614D01*
X145840224Y-67502614D02*
X145768795Y-67645471D01*
X145768795Y-67645471D02*
X145768795Y-68002614D01*
X145768795Y-68002614D02*
X145840224Y-68145471D01*
X145840224Y-68145471D02*
X145911653Y-68216900D01*
X145911653Y-68216900D02*
X146054510Y-68288328D01*
X146054510Y-68288328D02*
X146483081Y-68288328D01*
X146483081Y-68288328D02*
X146625938Y-68216900D01*
X146625938Y-68216900D02*
X146697367Y-68145471D01*
X145340224Y-66788328D02*
X144840224Y-68288328D01*
X144840224Y-68288328D02*
X144340224Y-66788328D01*
X148125938Y-75836900D02*
X147911653Y-75908328D01*
X147911653Y-75908328D02*
X147554510Y-75908328D01*
X147554510Y-75908328D02*
X147411653Y-75836900D01*
X147411653Y-75836900D02*
X147340224Y-75765471D01*
X147340224Y-75765471D02*
X147268795Y-75622614D01*
X147268795Y-75622614D02*
X147268795Y-75479757D01*
X147268795Y-75479757D02*
X147340224Y-75336900D01*
X147340224Y-75336900D02*
X147411653Y-75265471D01*
X147411653Y-75265471D02*
X147554510Y-75194042D01*
X147554510Y-75194042D02*
X147840224Y-75122614D01*
X147840224Y-75122614D02*
X147983081Y-75051185D01*
X147983081Y-75051185D02*
X148054510Y-74979757D01*
X148054510Y-74979757D02*
X148125938Y-74836900D01*
X148125938Y-74836900D02*
X148125938Y-74694042D01*
X148125938Y-74694042D02*
X148054510Y-74551185D01*
X148054510Y-74551185D02*
X147983081Y-74479757D01*
X147983081Y-74479757D02*
X147840224Y-74408328D01*
X147840224Y-74408328D02*
X147483081Y-74408328D01*
X147483081Y-74408328D02*
X147268795Y-74479757D01*
X146625939Y-75908328D02*
X146625939Y-74408328D01*
X146625939Y-74408328D02*
X146268796Y-74408328D01*
X146268796Y-74408328D02*
X146054510Y-74479757D01*
X146054510Y-74479757D02*
X145911653Y-74622614D01*
X145911653Y-74622614D02*
X145840224Y-74765471D01*
X145840224Y-74765471D02*
X145768796Y-75051185D01*
X145768796Y-75051185D02*
X145768796Y-75265471D01*
X145768796Y-75265471D02*
X145840224Y-75551185D01*
X145840224Y-75551185D02*
X145911653Y-75694042D01*
X145911653Y-75694042D02*
X146054510Y-75836900D01*
X146054510Y-75836900D02*
X146268796Y-75908328D01*
X146268796Y-75908328D02*
X146625939Y-75908328D01*
X145197367Y-75479757D02*
X144483082Y-75479757D01*
X145340224Y-75908328D02*
X144840224Y-74408328D01*
X144840224Y-74408328D02*
X144340224Y-75908328D01*
D11*
X149214969Y-69893232D02*
X150414969Y-70293232D01*
X150414969Y-70293232D02*
X149214969Y-70693232D01*
X150414969Y-71664660D02*
X150414969Y-71093232D01*
X150414969Y-71093232D02*
X149214969Y-71093232D01*
X149214969Y-72636089D02*
X149214969Y-72064661D01*
X149214969Y-72064661D02*
X149786398Y-72007518D01*
X149786398Y-72007518D02*
X149729255Y-72064661D01*
X149729255Y-72064661D02*
X149672112Y-72178947D01*
X149672112Y-72178947D02*
X149672112Y-72464661D01*
X149672112Y-72464661D02*
X149729255Y-72578947D01*
X149729255Y-72578947D02*
X149786398Y-72636089D01*
X149786398Y-72636089D02*
X149900684Y-72693232D01*
X149900684Y-72693232D02*
X150186398Y-72693232D01*
X150186398Y-72693232D02*
X150300684Y-72636089D01*
X150300684Y-72636089D02*
X150357827Y-72578947D01*
X150357827Y-72578947D02*
X150414969Y-72464661D01*
X150414969Y-72464661D02*
X150414969Y-72178947D01*
X150414969Y-72178947D02*
X150357827Y-72064661D01*
X150357827Y-72064661D02*
X150300684Y-72007518D01*
X149214969Y-73093232D02*
X149214969Y-73836089D01*
X149214969Y-73836089D02*
X149672112Y-73436089D01*
X149672112Y-73436089D02*
X149672112Y-73607518D01*
X149672112Y-73607518D02*
X149729255Y-73721804D01*
X149729255Y-73721804D02*
X149786398Y-73778946D01*
X149786398Y-73778946D02*
X149900684Y-73836089D01*
X149900684Y-73836089D02*
X150186398Y-73836089D01*
X150186398Y-73836089D02*
X150300684Y-73778946D01*
X150300684Y-73778946D02*
X150357827Y-73721804D01*
X150357827Y-73721804D02*
X150414969Y-73607518D01*
X150414969Y-73607518D02*
X150414969Y-73264661D01*
X150414969Y-73264661D02*
X150357827Y-73150375D01*
X150357827Y-73150375D02*
X150300684Y-73093232D01*
X150414969Y-74921803D02*
X150414969Y-74350375D01*
X150414969Y-74350375D02*
X149214969Y-74350375D01*
X149214969Y-75550375D02*
X149214969Y-75664661D01*
X149214969Y-75664661D02*
X149272112Y-75778947D01*
X149272112Y-75778947D02*
X149329255Y-75836090D01*
X149329255Y-75836090D02*
X149443541Y-75893232D01*
X149443541Y-75893232D02*
X149672112Y-75950375D01*
X149672112Y-75950375D02*
X149957827Y-75950375D01*
X149957827Y-75950375D02*
X150186398Y-75893232D01*
X150186398Y-75893232D02*
X150300684Y-75836090D01*
X150300684Y-75836090D02*
X150357827Y-75778947D01*
X150357827Y-75778947D02*
X150414969Y-75664661D01*
X150414969Y-75664661D02*
X150414969Y-75550375D01*
X150414969Y-75550375D02*
X150357827Y-75436090D01*
X150357827Y-75436090D02*
X150300684Y-75378947D01*
X150300684Y-75378947D02*
X150186398Y-75321804D01*
X150186398Y-75321804D02*
X149957827Y-75264661D01*
X149957827Y-75264661D02*
X149672112Y-75264661D01*
X149672112Y-75264661D02*
X149443541Y-75321804D01*
X149443541Y-75321804D02*
X149329255Y-75378947D01*
X149329255Y-75378947D02*
X149272112Y-75436090D01*
X149272112Y-75436090D02*
X149214969Y-75550375D01*
X152232617Y-70750375D02*
X152289760Y-70693232D01*
X152289760Y-70693232D02*
X152346902Y-70521804D01*
X152346902Y-70521804D02*
X152346902Y-70407518D01*
X152346902Y-70407518D02*
X152289760Y-70236089D01*
X152289760Y-70236089D02*
X152175474Y-70121804D01*
X152175474Y-70121804D02*
X152061188Y-70064661D01*
X152061188Y-70064661D02*
X151832617Y-70007518D01*
X151832617Y-70007518D02*
X151661188Y-70007518D01*
X151661188Y-70007518D02*
X151432617Y-70064661D01*
X151432617Y-70064661D02*
X151318331Y-70121804D01*
X151318331Y-70121804D02*
X151204045Y-70236089D01*
X151204045Y-70236089D02*
X151146902Y-70407518D01*
X151146902Y-70407518D02*
X151146902Y-70521804D01*
X151146902Y-70521804D02*
X151204045Y-70693232D01*
X151204045Y-70693232D02*
X151261188Y-70750375D01*
X151146902Y-71150375D02*
X152346902Y-71950375D01*
X151146902Y-71950375D02*
X152346902Y-71150375D01*
X151146902Y-72236089D02*
X152346902Y-72636089D01*
X152346902Y-72636089D02*
X151146902Y-73036089D01*
X151146902Y-73664660D02*
X151146902Y-73778946D01*
X151146902Y-73778946D02*
X151204045Y-73893232D01*
X151204045Y-73893232D02*
X151261188Y-73950375D01*
X151261188Y-73950375D02*
X151375474Y-74007517D01*
X151375474Y-74007517D02*
X151604045Y-74064660D01*
X151604045Y-74064660D02*
X151889760Y-74064660D01*
X151889760Y-74064660D02*
X152118331Y-74007517D01*
X152118331Y-74007517D02*
X152232617Y-73950375D01*
X152232617Y-73950375D02*
X152289760Y-73893232D01*
X152289760Y-73893232D02*
X152346902Y-73778946D01*
X152346902Y-73778946D02*
X152346902Y-73664660D01*
X152346902Y-73664660D02*
X152289760Y-73550375D01*
X152289760Y-73550375D02*
X152232617Y-73493232D01*
X152232617Y-73493232D02*
X152118331Y-73436089D01*
X152118331Y-73436089D02*
X151889760Y-73378946D01*
X151889760Y-73378946D02*
X151604045Y-73378946D01*
X151604045Y-73378946D02*
X151375474Y-73436089D01*
X151375474Y-73436089D02*
X151261188Y-73493232D01*
X151261188Y-73493232D02*
X151204045Y-73550375D01*
X151204045Y-73550375D02*
X151146902Y-73664660D01*
X152346902Y-74578946D02*
X151146902Y-74578946D01*
X151146902Y-74578946D02*
X151146902Y-74864660D01*
X151146902Y-74864660D02*
X151204045Y-75036089D01*
X151204045Y-75036089D02*
X151318331Y-75150374D01*
X151318331Y-75150374D02*
X151432617Y-75207517D01*
X151432617Y-75207517D02*
X151661188Y-75264660D01*
X151661188Y-75264660D02*
X151832617Y-75264660D01*
X151832617Y-75264660D02*
X152061188Y-75207517D01*
X152061188Y-75207517D02*
X152175474Y-75150374D01*
X152175474Y-75150374D02*
X152289760Y-75036089D01*
X152289760Y-75036089D02*
X152346902Y-74864660D01*
X152346902Y-74864660D02*
X152346902Y-74578946D01*
X152346902Y-75778946D02*
X151146902Y-75778946D01*
X151718331Y-75778946D02*
X151718331Y-76464660D01*
X152346902Y-76464660D02*
X151146902Y-76464660D01*
X152346902Y-77664660D02*
X152346902Y-76978946D01*
X152346902Y-77321803D02*
X151146902Y-77321803D01*
X151146902Y-77321803D02*
X151318331Y-77207517D01*
X151318331Y-77207517D02*
X151432617Y-77093232D01*
X151432617Y-77093232D02*
X151489760Y-76978946D01*
M02*
