%TF.GenerationSoftware,KiCad,Pcbnew,9.0.4*%
%TF.CreationDate,2025-09-17T09:18:14+02:00*%
%TF.ProjectId,vl53l0_breakout,766c3533-6c30-45f6-9272-65616b6f7574,rev?*%
%TF.SameCoordinates,Original*%
%TF.FileFunction,Copper,L2,Bot*%
%TF.FilePolarity,Positive*%
%FSLAX46Y46*%
G04 Gerber Fmt 4.6, Leading zero omitted, Abs format (unit mm)*
G04 Created by KiCad (PCBNEW 9.0.4) date 2025-09-17 09:18:14*
%MOMM*%
%LPD*%
G01*
G04 APERTURE LIST*
%TA.AperFunction,ComponentPad*%
%ADD10R,1.700000X1.700000*%
%TD*%
%TA.AperFunction,ComponentPad*%
%ADD11C,1.700000*%
%TD*%
%TA.AperFunction,ComponentPad*%
%ADD12C,3.500000*%
%TD*%
%TA.AperFunction,ViaPad*%
%ADD13C,0.500000*%
%TD*%
%TA.AperFunction,Conductor*%
%ADD14C,0.300000*%
%TD*%
G04 APERTURE END LIST*
D10*
%TO.P,J1,1,Pin_1*%
%TO.N,+3.3V*%
X143000000Y-67650000D03*
D11*
%TO.P,J1,2,Pin_2*%
%TO.N,GND*%
X143000000Y-70190000D03*
%TO.P,J1,3,Pin_3*%
%TO.N,/I2C_SCL*%
X143000000Y-72730000D03*
%TO.P,J1,4,Pin_4*%
%TO.N,/I2C_SDA*%
X143000000Y-75270000D03*
%TO.P,J1,5,Pin_5*%
%TO.N,/GPIO1*%
X143000000Y-77810000D03*
%TO.P,J1,6,Pin_6*%
%TO.N,/XSHUT*%
X143000000Y-80350000D03*
%TD*%
D12*
%TO.P,H1,1,1*%
%TO.N,GND*%
X151000000Y-67000000D03*
%TD*%
%TO.P,H2,1,1*%
%TO.N,GND*%
X151000000Y-81000000D03*
%TD*%
D13*
%TO.N,GND*%
X146500000Y-69675000D03*
X150100000Y-73100000D03*
X150300000Y-70500000D03*
X150200000Y-75000000D03*
%TO.N,+3.3V*%
X148900000Y-79100000D03*
X147530829Y-76842000D03*
X147526000Y-79100000D03*
%TD*%
D14*
%TO.N,+3.3V*%
X147530829Y-76842000D02*
X147526000Y-76846829D01*
X148900000Y-79100000D02*
X147526000Y-79100000D01*
X147526000Y-76846829D02*
X147526000Y-79100000D01*
%TD*%
%TA.AperFunction,Conductor*%
%TO.N,GND*%
G36*
X151003522Y-65500752D02*
G01*
X151028505Y-65502538D01*
X151206345Y-65515258D01*
X151220308Y-65517265D01*
X151415549Y-65559737D01*
X151429088Y-65563713D01*
X151616292Y-65633537D01*
X151629118Y-65639394D01*
X151804476Y-65735146D01*
X151816356Y-65742781D01*
X151976294Y-65862509D01*
X151986966Y-65871756D01*
X152128243Y-66013033D01*
X152137493Y-66023709D01*
X152257218Y-66183643D01*
X152264854Y-66195525D01*
X152360602Y-66370875D01*
X152366466Y-66383715D01*
X152436284Y-66570904D01*
X152440264Y-66584457D01*
X152482732Y-66779681D01*
X152484742Y-66793662D01*
X152499248Y-66996476D01*
X152499500Y-67003539D01*
X152499500Y-80996460D01*
X152499248Y-81003523D01*
X152484742Y-81206337D01*
X152482732Y-81220318D01*
X152440264Y-81415542D01*
X152436284Y-81429095D01*
X152366466Y-81616284D01*
X152360598Y-81629133D01*
X152264854Y-81804474D01*
X152257218Y-81816356D01*
X152137493Y-81976290D01*
X152128243Y-81986966D01*
X151986966Y-82128243D01*
X151976290Y-82137493D01*
X151816356Y-82257218D01*
X151804474Y-82264854D01*
X151629133Y-82360598D01*
X151616284Y-82366466D01*
X151429095Y-82436284D01*
X151415542Y-82440264D01*
X151220318Y-82482732D01*
X151206337Y-82484742D01*
X151003523Y-82499248D01*
X150996460Y-82499500D01*
X142204861Y-82499500D01*
X142195157Y-82499023D01*
X142073237Y-82487014D01*
X142054203Y-82483228D01*
X141941645Y-82449084D01*
X141923714Y-82441657D01*
X141819977Y-82386208D01*
X141803841Y-82375426D01*
X141712916Y-82300806D01*
X141699193Y-82287083D01*
X141624573Y-82196158D01*
X141613791Y-82180022D01*
X141558342Y-82076285D01*
X141550915Y-82058354D01*
X141529260Y-81986966D01*
X141516770Y-81945794D01*
X141512985Y-81926762D01*
X141500977Y-81804842D01*
X141500500Y-81795138D01*
X141500500Y-80246532D01*
X141949500Y-80246532D01*
X141949500Y-80453467D01*
X141989869Y-80656418D01*
X142069058Y-80847597D01*
X142170890Y-81000000D01*
X142184023Y-81019655D01*
X142330345Y-81165977D01*
X142502402Y-81280941D01*
X142693580Y-81360130D01*
X142896535Y-81400500D01*
X142896536Y-81400500D01*
X143103464Y-81400500D01*
X143103465Y-81400500D01*
X143306420Y-81360130D01*
X143497598Y-81280941D01*
X143669655Y-81165977D01*
X143815977Y-81019655D01*
X143930941Y-80847598D01*
X144010130Y-80656420D01*
X144050500Y-80453465D01*
X144050500Y-80246535D01*
X144010130Y-80043580D01*
X143930941Y-79852402D01*
X143815977Y-79680345D01*
X143669655Y-79534023D01*
X143669651Y-79534020D01*
X143497597Y-79419058D01*
X143306418Y-79339869D01*
X143103467Y-79299500D01*
X143103465Y-79299500D01*
X142896535Y-79299500D01*
X142896532Y-79299500D01*
X142693581Y-79339869D01*
X142502402Y-79419058D01*
X142330348Y-79534020D01*
X142184020Y-79680348D01*
X142069058Y-79852402D01*
X141989869Y-80043581D01*
X141949500Y-80246532D01*
X141500500Y-80246532D01*
X141500500Y-79040691D01*
X147075500Y-79040691D01*
X147075500Y-79159309D01*
X147102574Y-79260351D01*
X147106202Y-79273890D01*
X147165507Y-79376608D01*
X147165509Y-79376610D01*
X147165511Y-79376613D01*
X147249387Y-79460489D01*
X147249389Y-79460490D01*
X147249391Y-79460492D01*
X147352110Y-79519797D01*
X147352111Y-79519797D01*
X147352114Y-79519799D01*
X147466691Y-79550500D01*
X147466693Y-79550500D01*
X147585307Y-79550500D01*
X147585309Y-79550500D01*
X147699886Y-79519799D01*
X147699888Y-79519797D01*
X147699890Y-79519797D01*
X147796942Y-79463764D01*
X147846442Y-79450500D01*
X148579558Y-79450500D01*
X148629058Y-79463764D01*
X148726110Y-79519797D01*
X148726111Y-79519797D01*
X148726114Y-79519799D01*
X148840691Y-79550500D01*
X148840693Y-79550500D01*
X148959307Y-79550500D01*
X148959309Y-79550500D01*
X149073886Y-79519799D01*
X149073888Y-79519797D01*
X149073890Y-79519797D01*
X149176608Y-79460492D01*
X149176608Y-79460491D01*
X149176613Y-79460489D01*
X149260489Y-79376613D01*
X149281703Y-79339870D01*
X149319797Y-79273890D01*
X149319797Y-79273888D01*
X149319799Y-79273886D01*
X149350500Y-79159309D01*
X149350500Y-79040691D01*
X149319799Y-78926114D01*
X149319797Y-78926111D01*
X149319797Y-78926109D01*
X149260492Y-78823391D01*
X149260490Y-78823389D01*
X149260489Y-78823387D01*
X149176613Y-78739511D01*
X149176610Y-78739509D01*
X149176608Y-78739507D01*
X149073889Y-78680202D01*
X149073890Y-78680202D01*
X149060351Y-78676574D01*
X148959309Y-78649500D01*
X148840691Y-78649500D01*
X148770567Y-78668289D01*
X148726109Y-78680202D01*
X148629058Y-78736236D01*
X148579558Y-78749500D01*
X147975500Y-78749500D01*
X147917309Y-78730593D01*
X147881345Y-78681093D01*
X147876500Y-78650500D01*
X147876500Y-77170805D01*
X147889764Y-77121304D01*
X147899422Y-77104576D01*
X147950628Y-77015886D01*
X147981329Y-76901309D01*
X147981329Y-76782691D01*
X147950628Y-76668114D01*
X147950626Y-76668111D01*
X147950626Y-76668109D01*
X147891321Y-76565391D01*
X147891319Y-76565389D01*
X147891318Y-76565387D01*
X147807442Y-76481511D01*
X147807439Y-76481509D01*
X147807437Y-76481507D01*
X147704718Y-76422202D01*
X147704719Y-76422202D01*
X147691180Y-76418574D01*
X147590138Y-76391500D01*
X147471520Y-76391500D01*
X147401396Y-76410289D01*
X147356938Y-76422202D01*
X147254220Y-76481507D01*
X147170336Y-76565391D01*
X147111031Y-76668109D01*
X147111030Y-76668114D01*
X147080329Y-76782691D01*
X147080329Y-76901309D01*
X147105171Y-76994020D01*
X147111031Y-77015888D01*
X147162236Y-77104576D01*
X147175500Y-77154077D01*
X147175500Y-78779558D01*
X147162236Y-78829058D01*
X147106202Y-78926109D01*
X147106201Y-78926114D01*
X147075500Y-79040691D01*
X141500500Y-79040691D01*
X141500500Y-77706532D01*
X141949500Y-77706532D01*
X141949500Y-77913467D01*
X141989869Y-78116418D01*
X142069058Y-78307597D01*
X142069059Y-78307598D01*
X142184023Y-78479655D01*
X142330345Y-78625977D01*
X142502402Y-78740941D01*
X142693580Y-78820130D01*
X142896535Y-78860500D01*
X142896536Y-78860500D01*
X143103464Y-78860500D01*
X143103465Y-78860500D01*
X143306420Y-78820130D01*
X143497598Y-78740941D01*
X143669655Y-78625977D01*
X143815977Y-78479655D01*
X143930941Y-78307598D01*
X144010130Y-78116420D01*
X144050500Y-77913465D01*
X144050500Y-77706535D01*
X144010130Y-77503580D01*
X143930941Y-77312402D01*
X143815977Y-77140345D01*
X143669655Y-76994023D01*
X143497598Y-76879059D01*
X143497599Y-76879059D01*
X143497597Y-76879058D01*
X143306418Y-76799869D01*
X143103467Y-76759500D01*
X143103465Y-76759500D01*
X142896535Y-76759500D01*
X142896532Y-76759500D01*
X142693581Y-76799869D01*
X142502402Y-76879058D01*
X142330348Y-76994020D01*
X142184020Y-77140348D01*
X142069058Y-77312402D01*
X141989869Y-77503581D01*
X141949500Y-77706532D01*
X141500500Y-77706532D01*
X141500500Y-75166532D01*
X141949500Y-75166532D01*
X141949500Y-75373467D01*
X141989869Y-75576418D01*
X142069058Y-75767597D01*
X142069059Y-75767598D01*
X142184023Y-75939655D01*
X142330345Y-76085977D01*
X142502402Y-76200941D01*
X142693580Y-76280130D01*
X142896535Y-76320500D01*
X142896536Y-76320500D01*
X143103464Y-76320500D01*
X143103465Y-76320500D01*
X143306420Y-76280130D01*
X143497598Y-76200941D01*
X143669655Y-76085977D01*
X143815977Y-75939655D01*
X143930941Y-75767598D01*
X144010130Y-75576420D01*
X144050500Y-75373465D01*
X144050500Y-75166535D01*
X144010130Y-74963580D01*
X143930941Y-74772402D01*
X143815977Y-74600345D01*
X143669655Y-74454023D01*
X143497598Y-74339059D01*
X143497599Y-74339059D01*
X143497597Y-74339058D01*
X143306418Y-74259869D01*
X143103467Y-74219500D01*
X143103465Y-74219500D01*
X142896535Y-74219500D01*
X142896532Y-74219500D01*
X142693581Y-74259869D01*
X142502402Y-74339058D01*
X142330348Y-74454020D01*
X142184020Y-74600348D01*
X142069058Y-74772402D01*
X141989869Y-74963581D01*
X141949500Y-75166532D01*
X141500500Y-75166532D01*
X141500500Y-72626532D01*
X141949500Y-72626532D01*
X141949500Y-72833467D01*
X141989869Y-73036418D01*
X142069058Y-73227597D01*
X142069059Y-73227598D01*
X142184023Y-73399655D01*
X142330345Y-73545977D01*
X142502402Y-73660941D01*
X142693580Y-73740130D01*
X142896535Y-73780500D01*
X142896536Y-73780500D01*
X143103464Y-73780500D01*
X143103465Y-73780500D01*
X143306420Y-73740130D01*
X143497598Y-73660941D01*
X143669655Y-73545977D01*
X143815977Y-73399655D01*
X143930941Y-73227598D01*
X144010130Y-73036420D01*
X144050500Y-72833465D01*
X144050500Y-72626535D01*
X144010130Y-72423580D01*
X143930941Y-72232402D01*
X143815977Y-72060345D01*
X143669655Y-71914023D01*
X143497598Y-71799059D01*
X143497599Y-71799059D01*
X143497597Y-71799058D01*
X143306418Y-71719869D01*
X143103467Y-71679500D01*
X143103465Y-71679500D01*
X142896535Y-71679500D01*
X142896532Y-71679500D01*
X142693581Y-71719869D01*
X142502402Y-71799058D01*
X142330348Y-71914020D01*
X142184020Y-72060348D01*
X142069058Y-72232402D01*
X141989869Y-72423581D01*
X141949500Y-72626532D01*
X141500500Y-72626532D01*
X141500500Y-70099489D01*
X141850000Y-70099489D01*
X141850000Y-70280510D01*
X141878316Y-70459289D01*
X141934250Y-70631440D01*
X142016430Y-70792728D01*
X142087424Y-70890442D01*
X142556328Y-70421536D01*
X142599901Y-70497007D01*
X142692993Y-70590099D01*
X142768460Y-70633670D01*
X142299556Y-71102574D01*
X142299556Y-71102575D01*
X142397263Y-71173564D01*
X142397269Y-71173568D01*
X142558559Y-71255749D01*
X142730710Y-71311683D01*
X142909490Y-71340000D01*
X143090510Y-71340000D01*
X143269289Y-71311683D01*
X143441440Y-71255749D01*
X143602730Y-71173568D01*
X143602735Y-71173564D01*
X143700442Y-71102575D01*
X143700442Y-71102574D01*
X143231538Y-70633670D01*
X143307007Y-70590099D01*
X143400099Y-70497007D01*
X143443670Y-70421538D01*
X143912574Y-70890442D01*
X143912575Y-70890442D01*
X143983564Y-70792735D01*
X143983568Y-70792730D01*
X144065749Y-70631440D01*
X144121683Y-70459289D01*
X144150000Y-70280510D01*
X144150000Y-70099489D01*
X144121683Y-69920710D01*
X144065749Y-69748559D01*
X143983568Y-69587269D01*
X143983564Y-69587263D01*
X143912575Y-69489556D01*
X143912574Y-69489556D01*
X143443670Y-69958460D01*
X143400099Y-69882993D01*
X143307007Y-69789901D01*
X143231536Y-69746328D01*
X143700442Y-69277424D01*
X143602728Y-69206430D01*
X143441440Y-69124250D01*
X143269289Y-69068316D01*
X143090510Y-69040000D01*
X142909490Y-69040000D01*
X142730710Y-69068316D01*
X142558559Y-69124250D01*
X142397269Y-69206431D01*
X142397265Y-69206433D01*
X142299556Y-69277423D01*
X142768461Y-69746328D01*
X142692993Y-69789901D01*
X142599901Y-69882993D01*
X142556328Y-69958461D01*
X142087423Y-69489556D01*
X142016433Y-69587265D01*
X142016431Y-69587269D01*
X141934250Y-69748559D01*
X141878316Y-69920710D01*
X141850000Y-70099489D01*
X141500500Y-70099489D01*
X141500500Y-66780253D01*
X141949500Y-66780253D01*
X141949500Y-68519746D01*
X141949501Y-68519758D01*
X141961132Y-68578227D01*
X141961133Y-68578231D01*
X142005448Y-68644552D01*
X142071769Y-68688867D01*
X142116231Y-68697711D01*
X142130241Y-68700498D01*
X142130246Y-68700498D01*
X142130252Y-68700500D01*
X142130253Y-68700500D01*
X143869747Y-68700500D01*
X143869748Y-68700500D01*
X143928231Y-68688867D01*
X143994552Y-68644552D01*
X144038867Y-68578231D01*
X144050500Y-68519748D01*
X144050500Y-66780252D01*
X144050386Y-66779681D01*
X144047711Y-66766231D01*
X144038867Y-66721769D01*
X143994552Y-66655448D01*
X143994548Y-66655445D01*
X143928233Y-66611134D01*
X143928231Y-66611133D01*
X143928228Y-66611132D01*
X143928227Y-66611132D01*
X143869758Y-66599501D01*
X143869748Y-66599500D01*
X142130252Y-66599500D01*
X142130251Y-66599500D01*
X142130241Y-66599501D01*
X142071772Y-66611132D01*
X142071766Y-66611134D01*
X142005451Y-66655445D01*
X142005445Y-66655451D01*
X141961134Y-66721766D01*
X141961132Y-66721772D01*
X141949501Y-66780241D01*
X141949500Y-66780253D01*
X141500500Y-66780253D01*
X141500500Y-66404861D01*
X141500977Y-66395157D01*
X141502757Y-66377085D01*
X141516828Y-66234215D01*
X141520614Y-66215185D01*
X141528464Y-66189309D01*
X141566139Y-66065106D01*
X141573566Y-66047178D01*
X141647497Y-65908863D01*
X141658274Y-65892732D01*
X141757774Y-65771490D01*
X141771490Y-65757774D01*
X141892732Y-65658274D01*
X141908863Y-65647497D01*
X141930360Y-65636007D01*
X142047178Y-65573566D01*
X142065106Y-65566139D01*
X142215189Y-65520613D01*
X142234215Y-65516828D01*
X142395157Y-65500976D01*
X142404861Y-65500500D01*
X142465892Y-65500500D01*
X150934108Y-65500500D01*
X150996460Y-65500500D01*
X151003522Y-65500752D01*
G37*
%TD.AperFunction*%
%TD*%
M02*
