%TF.GenerationSoftware,KiCad,Pcbnew,9.0.4*%
%TF.CreationDate,2025-09-17T09:18:14+02:00*%
%TF.ProjectId,vl53l0_breakout,766c3533-6c30-45f6-9272-65616b6f7574,rev?*%
%TF.SameCoordinates,Original*%
%TF.FileFunction,Soldermask,Top*%
%TF.FilePolarity,Negative*%
%FSLAX46Y46*%
G04 Gerber Fmt 4.6, Leading zero omitted, Abs format (unit mm)*
G04 Created by KiCad (PCBNEW 9.0.4) date 2025-09-17 09:18:14*
%MOMM*%
%LPD*%
G01*
G04 APERTURE LIST*
G04 Aperture macros list*
%AMRoundRect*
0 Rectangle with rounded corners*
0 $1 Rounding radius*
0 $2 $3 $4 $5 $6 $7 $8 $9 X,Y pos of 4 corners*
0 Add a 4 corners polygon primitive as box body*
4,1,4,$2,$3,$4,$5,$6,$7,$8,$9,$2,$3,0*
0 Add four circle primitives for the rounded corners*
1,1,$1+$1,$2,$3*
1,1,$1+$1,$4,$5*
1,1,$1+$1,$6,$7*
1,1,$1+$1,$8,$9*
0 Add four rect primitives between the rounded corners*
20,1,$1+$1,$2,$3,$4,$5,0*
20,1,$1+$1,$4,$5,$6,$7,0*
20,1,$1+$1,$6,$7,$8,$9,0*
20,1,$1+$1,$8,$9,$2,$3,0*%
G04 Aperture macros list end*
%ADD10RoundRect,0.140000X0.140000X0.170000X-0.140000X0.170000X-0.140000X-0.170000X0.140000X-0.170000X0*%
%ADD11RoundRect,0.135000X-0.135000X-0.185000X0.135000X-0.185000X0.135000X0.185000X-0.135000X0.185000X0*%
%ADD12R,1.700000X1.700000*%
%ADD13C,1.700000*%
%ADD14C,3.500000*%
%ADD15RoundRect,0.155000X0.155000X-0.212500X0.155000X0.212500X-0.155000X0.212500X-0.155000X-0.212500X0*%
%ADD16RoundRect,0.140000X-0.140000X-0.170000X0.140000X-0.170000X0.140000X0.170000X-0.140000X0.170000X0*%
%ADD17RoundRect,0.218750X0.256250X-0.218750X0.256250X0.218750X-0.256250X0.218750X-0.256250X-0.218750X0*%
%ADD18RoundRect,0.135000X0.185000X-0.135000X0.185000X0.135000X-0.185000X0.135000X-0.185000X-0.135000X0*%
%ADD19RoundRect,0.135000X-0.185000X0.135000X-0.185000X-0.135000X0.185000X-0.135000X0.185000X0.135000X0*%
%ADD20RoundRect,0.155000X-0.155000X0.212500X-0.155000X-0.212500X0.155000X-0.212500X0.155000X0.212500X0*%
%ADD21RoundRect,0.225000X-0.250000X0.225000X-0.250000X-0.225000X0.250000X-0.225000X0.250000X0.225000X0*%
%ADD22RoundRect,0.062500X-0.062500X0.127500X-0.062500X-0.127500X0.062500X-0.127500X0.062500X0.127500X0*%
%ADD23RoundRect,0.125000X-0.125000X0.125000X-0.125000X-0.125000X0.125000X-0.125000X0.125000X0.125000X0*%
G04 APERTURE END LIST*
D10*
%TO.C,C2*%
X151780000Y-70500000D03*
X150820000Y-70500000D03*
%TD*%
D11*
%TO.C,R5*%
X145238000Y-77818000D03*
X146258000Y-77818000D03*
%TD*%
D12*
%TO.C,J1*%
X143000000Y-67650000D03*
D13*
X143000000Y-70190000D03*
X143000000Y-72730000D03*
X143000000Y-75270000D03*
X143000000Y-77810000D03*
X143000000Y-80350000D03*
%TD*%
D11*
%TO.C,R3*%
X145238000Y-72738000D03*
X146258000Y-72738000D03*
%TD*%
D14*
%TO.C,H1*%
X151000000Y-67000000D03*
%TD*%
D11*
%TO.C,R2*%
X145990000Y-66800000D03*
X147010000Y-66800000D03*
%TD*%
D15*
%TO.C,R9*%
X147272000Y-75337500D03*
X147272000Y-74202500D03*
%TD*%
D11*
%TO.C,R4*%
X145238000Y-75278000D03*
X146258000Y-75278000D03*
%TD*%
D14*
%TO.C,H2*%
X151000000Y-81000000D03*
%TD*%
D16*
%TO.C,C1*%
X148820000Y-70500000D03*
X149780000Y-70500000D03*
%TD*%
D17*
%TO.C,D2*%
X147300000Y-69687500D03*
X147300000Y-68112500D03*
%TD*%
D18*
%TO.C,R1*%
X147526000Y-78582000D03*
X147526000Y-77562000D03*
%TD*%
D19*
%TO.C,R7*%
X147526000Y-79594000D03*
X147526000Y-80614000D03*
%TD*%
D20*
%TO.C,R8*%
X147272000Y-71916500D03*
X147272000Y-73051500D03*
%TD*%
D11*
%TO.C,R6*%
X145238000Y-80358000D03*
X146258000Y-80358000D03*
%TD*%
D21*
%TO.C,C3*%
X145700000Y-68125000D03*
X145700000Y-69675000D03*
%TD*%
D22*
%TO.C,U1*%
X150675000Y-72260000D03*
D23*
X150800000Y-72400000D03*
X150800000Y-73200000D03*
X150800000Y-74000000D03*
X150800000Y-74800000D03*
X150800000Y-75600000D03*
X150000000Y-75600000D03*
X149200000Y-75600000D03*
X149200000Y-74800000D03*
X149200000Y-74000000D03*
X149200000Y-73200000D03*
X149200000Y-72400000D03*
X150000000Y-72400000D03*
%TD*%
M02*
